<svg xmlns="http://www.w3.org/2000/svg" viewBox="0 0 720 280" fill="none">
  <!-- AGH text -->
  <g class="agh-text" fill="#8a90a8">
    <!-- A -->
    <path d="M168 48 L176 28 L184 48 L181 48 L176 36 L171 48 Z"/>
    <!-- G -->
    <path d="M190 28 L204 28 L204 32 L194 32 L194 42 L202 42 L202 38 L198 38 L198 35 L206 35 L206 48 L190 48 Z"/>
    <!-- H -->
    <path d="M212 28 L216 28 L216 36 L224 36 L224 28 L228 28 L228 48 L224 48 L224 40 L216 40 L216 48 L212 48 Z"/>
  </g>

  <!-- H letter -->
  <g class="letter-h">
    <path d="M130 60 L170 60 L170 110 L210 110 L210 60 L250 60 L250 200 L210 200 L210 150 L170 150 L170 200 L130 200 Z" fill="#b0bcc8" stroke="#b0bcc8" stroke-width="2"/>
  </g>

  <!-- E letter -->
  <g class="letter-e">
    <path d="M265 60 L385 60 L385 100 L305 100 L305 110 L375 110 L375 145 L305 145 L305 160 L385 160 L385 200 L265 200 Z" fill="#b0bcc8" stroke="#b0bcc8" stroke-width="2"/>
  </g>

  <!-- R letter -->
  <g class="letter-r">
    <path d="M400 60 L500 60 Q530 60 530 90 Q530 115 505 120 L540 200 L500 200 L470 130 L440 130 L440 200 L400 200 L400 60 Z M440 100 L490 100 Q500 100 500 90 Q500 80 490 80 L440 80 Z" fill="#b0bcc8" stroke="#b0bcc8" stroke-width="2"/>
  </g>

  <!-- M letter -->
  <g class="letter-m">
    <path d="M140 60 L180 60 L210 110 L240 60 L280 60 L280 200 L245 200 L245 120 L218 160 L202 160 L175 120 L175 200 L140 200 Z" fill="#b0bcc8" stroke="#b0bcc8" stroke-width="2" opacity="0"/>
  </g>

  <!-- E2 letter -->
  <g class="letter-e2">
    <path d="M480 60 L600 60 L600 100 L520 100 L520 110 L590 110 L590 145 L520 145 L520 160 L600 160 L600 200 L480 200 Z" fill="#b0bcc8" stroke="#b0bcc8" stroke-width="2" opacity="0"/>
  </g>

  <!-- Lightning bolt S -->
  <g class="lightning-s">
    <path d="M600 40 L640 40 L615 120 L650 120 L590 240 L610 150 L580 150 Z" fill="#5cc6d0" stroke="#5cc6d0" stroke-width="1"/>
  </g>

  <!-- Underline bar -->
  <g class="underline-bar">
    <rect x="130" y="210" width="520" height="12" rx="2" fill="#5cc6d0" stroke="#5cc6d0" stroke-width="1"/>
  </g>
</svg>
